<?xml version="1.0" encoding="UTF-8"?>
<svg version="1.1" xmlns="http://www.w3.org/2000/svg" width="1000" height="1000">
<path d="M0 0 C1.19377721 -0.00440486 2.38755441 -0.00880973 3.61750668 -0.01334807 C6.93313453 -0.02354279 10.24854794 -0.02480796 13.56417611 -0.02229307 C17.17079059 -0.02173078 20.77737337 -0.03266737 24.383973 -0.04210895 C31.53837241 -0.05900272 38.6927445 -0.06512855 45.84716171 -0.06795697 C54.4167815 -0.07183522 62.98637111 -0.08720303 71.55597635 -0.10271808 C92.27094332 -0.13961563 112.98591161 -0.15599553 133.70090471 -0.16959644 C143.5039509 -0.17614089 153.30699466 -0.18496549 163.11003884 -0.19397634 C196.67709961 -0.22470407 230.24415998 -0.25041683 263.81123352 -0.26129913 C265.91841018 -0.26199552 268.02558684 -0.26269319 270.1327635 -0.26339215 C271.17771988 -0.26373768 272.22267627 -0.26408321 273.299298 -0.26443921 C278.59343701 -0.26619262 283.88757601 -0.26796396 289.18171501 -0.26975155 C290.23234781 -0.27010109 291.28298061 -0.27045063 292.36545076 -0.27081076 C326.41421366 -0.28232891 360.46286584 -0.32166537 394.51158298 -0.37749786 C430.52206983 -0.43643913 466.53249256 -0.46982654 502.54302871 -0.47431129 C506.49905644 -0.47490027 510.45508414 -0.47559525 514.41111183 -0.4763689 C515.38517469 -0.47654786 516.35923754 -0.47672682 517.36281745 -0.47691121 C533.01580037 -0.48038909 548.66866109 -0.50704118 564.32160148 -0.54209781 C580.06790689 -0.57678196 595.81406196 -0.58540397 611.56039716 -0.56788719 C620.90547653 -0.55824117 630.25006073 -0.56784208 639.59507112 -0.60566037 C645.85078234 -0.62902513 652.1061525 -0.6265667 658.36186477 -0.60382219 C661.9177723 -0.59160556 665.47273592 -0.58990482 669.02855934 -0.619891 C685.75182283 -0.73463512 699.71714656 0.70477891 715.17146111 7.26564884 C716.05127723 7.6282515 716.93109335 7.99085416 717.83757056 8.36444478 C741.65864296 18.19582869 762.65771745 32.38507016 781.17146111 50.26564884 C782.15422431 51.18525077 783.13730061 52.10451821 784.12067986 53.02346134 C816.58900892 83.86013596 839.381068 132.1471131 841.28615846 176.96387444 C841.4779932 184.79459314 841.44477224 192.6270482 841.43215752 200.45954227 C841.43518093 203.12286032 841.43899107 205.78616686 841.44375008 208.44948131 C841.45247485 214.22269174 841.45383753 219.99586669 841.45024681 225.76908207 C841.44492117 234.35457324 841.45105378 242.94003028 841.45932974 251.52551774 C841.47454444 267.75451635 841.4762774 283.98349932 841.47380672 300.21250357 C841.47197171 312.74820878 841.47373802 325.28390889 841.47803116 337.81961346 C841.47863357 339.62272109 841.47923477 341.42582872 841.47983476 343.22893635 C841.48074205 345.94629512 841.48165072 348.66365389 841.48256711 351.38101266 C841.49099295 376.63574162 841.49533492 401.89046866 841.49116039 427.14519882 C841.49100402 428.09663194 841.49084764 429.04806506 841.49068653 430.02832949 C841.48988078 434.85019868 841.48903501 439.67206786 841.48817322 444.49393704 C841.48800214 445.45151702 841.48783105 446.409097 841.48765478 447.39569455 C841.48730812 449.33215268 841.48695959 451.26861082 841.48660919 453.20506895 C841.48125312 483.33001015 841.48918067 513.45492208 841.50764275 543.57985783 C841.52837764 577.45279067 841.53908259 611.32570539 841.53506726 645.19864494 C841.53467194 648.81329842 841.53431039 652.42795191 841.53396988 656.0426054 C841.53387915 656.93257464 841.53378842 657.82254389 841.53369493 658.7394819 C841.53253094 672.15064907 841.53916217 685.56179788 841.5497818 698.97296047 C841.56185365 714.23332168 841.56336996 729.49364255 841.55099163 744.75400438 C841.54438165 753.28378666 841.54595093 761.81347234 841.55958015 770.34324681 C841.56786488 776.05395862 841.56507526 781.76459858 841.55360488 787.47530463 C841.54738797 790.7203955 841.54733327 793.96526369 841.55746821 797.21035 C841.60994608 815.2765683 840.51394254 832.7834811 835.92146111 850.32814884 C835.60785637 851.54582951 835.60785637 851.54582951 835.28791618 852.78810978 C831.47454865 867.07065379 826.0092476 880.51739219 819.0752697 893.55519962 C818.27973455 895.06074237 817.51417029 896.58204118 816.75349236 898.10549259 C793.71797563 943.02812784 749.36203321 976.69332668 701.88044548 992.00441837 C684.96381699 997.20147824 667.84864566 1000.42851957 650.1247797 1000.39707661 C649.03982787 1000.39912924 647.95487605 1000.40118187 646.83704689 1000.40329671 C643.20031244 1000.40895262 639.56361604 1000.40751119 635.92687798 1000.40609074 C633.29349067 1000.40867518 630.6601064 1000.41164992 628.02672035 1000.41509414 C621.54745045 1000.42265683 615.0681888 1000.42486632 608.58891495 1000.42542319 C600.82579037 1000.42633856 593.06267336 1000.43301126 585.29955205 1000.43977002 C566.53725189 1000.45581535 547.77495255 1000.46173181 529.01264676 1000.46651877 C520.13230013 1000.46885637 511.25195415 1000.47245922 502.37160803 1000.47621414 C471.95827545 1000.48904889 441.54494323 1000.49976771 411.13160801 1000.50321674 C409.22309905 1000.50343837 407.31459009 1000.50366016 405.40608113 1000.5038821 C403.49302595 1000.50410273 401.57997077 1000.50432322 399.6669156 1000.50454354 C395.82915668 1000.50498609 391.99139776 1000.50543321 388.15363884 1000.50588322 C387.20210067 1000.50599261 386.25056251 1000.506102 385.27018985 1000.5062147 C354.42896401 1000.50984389 323.58776169 1000.5257591 292.74654485 1000.54907358 C260.12045837 1000.57369213 227.49438533 1000.58739054 194.86828929 1000.58858466 C191.28387407 1000.58875611 187.69945886 1000.58897153 184.11504364 1000.58921909 C182.79121962 1000.58930275 182.79121962 1000.58930275 181.44065169 1000.58938809 C167.26234066 1000.59053682 153.08405384 1000.60154377 138.90575097 1000.61610615 C124.64289327 1000.63050157 110.38006647 1000.63369099 96.1172035 1000.62566617 C87.65410253 1000.62122412 79.19110163 1000.62501319 70.7280139 1000.64090468 C65.06154178 1000.65070716 59.3951392 1000.64942659 53.72866762 1000.63946845 C50.50873423 1000.63411403 47.28902797 1000.63493751 44.06910368 1000.64597717 C26.11114147 1000.70361547 8.68358663 999.60013113 -8.76603889 995.07814884 C-9.57266975 994.87165714 -10.37930061 994.66516544 -11.21037483 994.45241642 C-26.77628118 990.2852249 -41.72285425 984.02487913 -55.82853889 976.26564884 C-56.44890022 975.92453068 -57.06926155 975.58341251 -57.70842171 975.23195744 C-72.85061791 966.77894255 -86.37261549 956.29558307 -98.82853889 944.26564884 C-99.8113021 943.34604691 -100.7943784 942.42677948 -101.77775764 941.50783634 C-131.35341124 913.41846948 -148.80946908 874.7051903 -156.82853889 835.26564884 C-157.00179589 834.448865 -157.17505288 833.63208116 -157.35356009 832.7905463 C-158.0091265 827.9254779 -157.97118655 823.12822343 -157.96555328 818.22446728 C-157.96820511 817.1036544 -157.97085694 815.98284152 -157.97358912 814.82806462 C-157.98128282 811.051239 -157.98184133 807.27444589 -157.98243904 803.49761295 C-157.98590818 800.77067004 -157.9908553 798.04373024 -157.9957186 795.31678951 C-158.00678405 788.59434139 -158.01244033 781.87189849 -158.01642747 775.14944287 C-158.02144022 767.09748329 -158.03216852 759.04553382 -158.04290921 750.99358021 C-158.06853353 731.52729274 -158.08357558 712.06100135 -158.09641968 692.59470186 C-158.10067579 686.14426741 -158.10524156 679.69383324 -158.11000299 673.24339914 C-158.1352693 638.92620345 -158.15731148 604.60900726 -158.16973114 570.29180431 C-158.17265234 562.34119127 -158.17561989 554.39057825 -158.17863655 546.43996525 C-158.17900746 545.45222524 -158.17937837 544.46448522 -158.17976052 543.44681369 C-158.19190568 511.44943824 -158.2228322 479.45211792 -158.26455807 447.45476834 C-158.30739751 414.54327403 -158.33397888 381.63180883 -158.33920585 348.72028589 C-158.33994624 344.06616525 -158.34085691 339.41204467 -158.34186363 334.75792408 C-158.34205425 333.84200932 -158.34224486 332.92609455 -158.34244125 331.98242479 C-158.34594715 317.27564304 -158.36620981 302.56893057 -158.39266027 287.86217421 C-158.41887936 273.06005002 -158.42650101 258.25800543 -158.41555898 243.45586134 C-158.40960756 234.6758352 -158.41735907 225.89608014 -158.44538982 217.11609533 C-158.46277151 211.23316605 -158.46158458 205.35041952 -158.44602213 199.4674859 C-158.4376923 196.12694577 -158.43957596 192.78733173 -158.45863359 189.44677629 C-158.73263939 138.24785799 -138.28159953 90.97412947 -102.82853889 54.26564884 C-101.90893696 53.28288564 -100.98966953 52.29980934 -100.07072639 51.31643009 C-78.06288129 28.14408853 -48.86090247 12.4180194 -18.82853889 2.26564884 C-17.86658958 1.92391685 -16.90464026 1.58218486 -15.91354096 1.23009735 C-10.68472238 -0.23955603 -5.39179921 -0.01582641 0 0 Z " fill="#77B0DE" transform="translate(157.82853889465332,-0.26564884185791016)"/>
<path d="M0 0 C3.26873736 0.00314255 6.53655056 -0.02032946 9.80517578 -0.0456543 C44.79536488 -0.14979568 79.94837836 6.3472284 112.42529297 19.56079102 C114.36666124 20.3419871 116.32013624 21.08424977 118.27783203 21.82348633 C145.52293897 32.31729903 171.43116127 48.76273343 193.46142578 67.87036133 C195.32018756 69.47089073 197.22381235 71.02107392 199.17236328 72.51098633 C199.87490234 73.1065332 200.57744141 73.70208008 201.30126953 74.31567383 C201.30126953 74.97567383 201.30126953 75.63567383 201.30126953 76.31567383 C201.87852783 76.56841064 202.45578613 76.82114746 203.05053711 77.08154297 C205.57433473 78.46540206 207.27550279 80.03108261 209.31298828 82.06176758 C210.06644531 82.81111572 210.81990234 83.56046387 211.59619141 84.33251953 C212.78051758 85.53074341 212.78051758 85.53074341 213.98876953 86.75317383 C214.80023437 87.57068115 215.61169922 88.38818848 216.44775391 89.23046875 C222.12846201 95.00543639 227.390788 100.86766383 232.30126953 107.31567383 C233.09404297 108.31469727 233.88681641 109.3137207 234.70361328 110.34301758 C246.39162213 125.13077151 257.28467864 141.24187688 265.30126953 158.31567383 C266.69345703 158.09911133 266.69345703 158.09911133 268.11376953 157.87817383 C298.30922211 153.64516646 330.15009381 155.34192294 359.30126953 164.31567383 C359.96803711 164.51418945 360.63480469 164.71270508 361.32177734 164.91723633 C387.35447768 172.71534926 412.8644638 187.29776478 432.30126953 206.31567383 C432.93033203 206.92040527 433.55939453 207.52513672 434.20751953 208.14819336 C443.40353039 217.00400253 451.96193747 225.8491481 459.30126953 236.31567383 C459.88884033 237.12875 459.88884033 237.12875 460.48828125 237.95825195 C479.33796845 264.10092781 491.86656824 294.83764537 498.30126953 326.31567383 C498.45886246 327.02206497 498.61645538 327.72845612 498.77882385 328.45625305 C502.51431786 345.39097294 502.92762932 362.02224879 502.82275391 379.26733398 C502.79996481 383.05571664 502.81351293 386.84297477 502.83652878 390.63131905 C502.92529023 407.89014439 502.13373849 424.40371536 498.30126953 441.31567383 C498.10679733 442.20495071 497.91232513 443.0942276 497.71195984 444.01045227 C491.41526426 472.74994909 479.17055343 499.92579816 461.30126953 523.31567383 C460.64255859 524.19868164 459.98384766 525.08168945 459.30517578 525.99145508 C447.76179615 540.82008505 433.81360477 553.76113916 418.30126953 564.31567383 C417.70894531 564.72076172 417.11662109 565.12584961 416.50634766 565.54321289 C408.10336196 571.23419819 399.34297085 576.29238944 390.43603516 581.14770508 C389.00134686 581.9326489 387.57038549 582.72443975 386.14306641 583.52270508 C355.83086106 600.46741614 322.66601109 611.62944895 287.73876953 611.37817383 C286.53929687 611.37366211 285.33982422 611.36915039 284.10400391 611.36450195 C281.16970594 611.35281152 278.23551504 611.33642521 275.30126953 611.31567383 C275.34670898 609.84481323 275.34670898 609.84481323 275.39306641 608.34423828 C275.94461192 590.33305134 276.49164296 572.33769158 276.30126953 554.31567383 C276.97367676 554.250979 277.64608398 554.18628418 278.33886719 554.11962891 C298.52136815 552.12399034 318.61554003 549.63196409 337.30126953 541.31567383 C338.49937256 540.79529541 338.49937256 540.79529541 339.72167969 540.2644043 C362.56371251 530.32822356 384.27817423 518.82295663 402.30126953 501.31567383 C403.19072266 500.49969727 404.08017578 499.6837207 404.99658203 498.84301758 C431.79356704 473.50157911 443.5865162 433.33954324 444.8840332 397.41943359 C444.91859619 396.16831787 444.95315918 394.91720215 444.98876953 393.62817383 C445.02784424 392.31324951 445.06691895 390.9983252 445.10717773 389.64355469 C445.35605334 379.80055477 445.24259603 370.11537813 444.30126953 360.31567383 C444.18912109 359.11297852 444.07697266 357.9102832 443.96142578 356.67114258 C443.08981211 349.00924334 441.58650748 341.52841016 439.92626953 334.00317383 C439.72936523 333.09599609 439.53246094 332.18881836 439.32958984 331.25415039 C438.07677495 325.79474557 436.39616734 320.73885952 434.23388672 315.57324219 C433.03905926 312.6809465 432.08518947 309.72698429 431.11376953 306.75317383 C418.67506159 271.68822721 392.25710427 242.99363726 358.93017578 226.94458008 C331.43936027 214.60478452 300.96044045 212.109701 271.30126953 217.31567383 C270.55280762 217.4392627 269.8043457 217.56285156 269.03320312 217.69018555 C240.86141813 222.40357484 213.36686002 233.35245772 190.19970703 250.23364258 C187.72921101 252.00827112 185.23552215 253.72638389 182.71533203 255.42895508 C181.87848877 255.99517578 181.04164551 256.56139648 180.17944336 257.14477539 C178.50925731 258.27317209 176.83730618 259.39896204 175.16333008 260.52172852 C170.25973602 263.84828476 165.72837729 267.3818331 161.30126953 271.31567383 C159.92070748 272.47986159 158.5282004 273.63037819 157.11376953 274.75317383 C156.164375 275.52467773 156.164375 275.52467773 155.19580078 276.31176758 C153.30126953 277.31567383 153.30126953 277.31567383 151.35595703 277.28051758 C148.39975453 275.89233884 146.76596472 273.8874529 144.61376953 271.44067383 C144.17806641 270.94889648 143.74236328 270.45711914 143.29345703 269.95043945 C139.60830881 265.75791575 136.09973006 261.42438599 132.59423828 257.08129883 C129.39137711 253.21822266 126.00607283 249.53593186 122.60986328 245.84301758 C119.7642579 242.72777784 117.02322775 239.5390454 114.30126953 236.31567383 C119.24847342 225.39358602 131.94455407 218.21349861 141.30126953 211.31567383 C142.00493652 210.79392578 142.70860352 210.27217773 143.43359375 209.73461914 C162.98730344 195.31117936 184.21590663 184.29946802 206.30126953 174.31567383 C199.30003628 159.14633511 188.46507161 146.02155367 177.61376953 133.44067383 C177.09145752 132.83441162 176.56914551 132.22814941 176.03100586 131.60351562 C171.11838262 125.97618867 166.06300606 120.41397384 160.05126953 115.94067383 C156.69641214 113.40338672 153.45542591 110.77596001 150.23876953 108.06567383 C140.05896044 99.71337604 129.11483777 92.15770636 117.30126953 86.31567383 C116.57343262 85.95119141 115.8455957 85.58670898 115.09570312 85.21118164 C87.96869624 71.68789416 59.99274296 62.6279069 29.71533203 59.56591797 C28.17685303 59.40643769 26.63994646 59.23028725 25.10595703 59.03222656 C-10.63660768 54.47132638 -50.52124954 60.59646879 -83.69873047 74.31567383 C-84.49657959 74.63536133 -85.29442871 74.95504883 -86.11645508 75.28442383 C-114.15759885 86.53604264 -139.42693554 102.28473556 -160.42529297 124.15551758 C-162.69873047 126.31567383 -162.69873047 126.31567383 -164.69873047 126.31567383 C-165.06611328 127.16452148 -165.06611328 127.16452148 -165.44091797 128.03051758 C-166.92252904 130.72226439 -168.71279169 132.64587445 -170.82373047 134.87817383 C-188.51382639 154.23554716 -202.06306523 178.74452239 -210.64404297 203.42504883 C-211.57504789 205.97669194 -212.58946982 208.46701202 -213.62841797 210.97583008 C-215.73623304 216.22737302 -217.29276027 221.52658516 -218.69873047 227.00317383 C-218.95364258 227.98125 -219.20855469 228.95932617 -219.47119141 229.96704102 C-221.5659192 238.25349886 -223.10843284 246.59521057 -224.40576172 255.04101562 C-224.54884766 255.95149658 -224.69193359 256.86197754 -224.83935547 257.80004883 C-224.95827148 258.60152344 -225.0771875 259.40299805 -225.19970703 260.22875977 C-225.69873047 262.31567383 -225.69873047 262.31567383 -227.69873047 265.31567383 C-229.90332031 266.05175781 -229.90332031 266.05175781 -232.65966797 266.56176758 C-233.67859131 266.75697998 -234.69751465 266.95219238 -235.74731445 267.15332031 C-236.84503174 267.35127197 -237.94274902 267.54922363 -239.07373047 267.75317383 C-240.20045166 267.96852783 -241.32717285 268.18388184 -242.48803711 268.40576172 C-246.83728823 269.23604816 -251.19096821 270.04064228 -255.546875 270.83520508 C-267.68002286 273.05641763 -279.13094179 276.01683344 -290.69873047 280.31567383 C-291.50310547 280.60958008 -292.30748047 280.90348633 -293.13623047 281.20629883 C-315.08921228 289.30146087 -333.60820046 300.24243727 -350.69873047 316.31567383 C-351.71193359 317.21479492 -351.71193359 317.21479492 -352.74560547 318.13208008 C-373.90557481 337.72621169 -385.4399861 369.61631217 -386.87451172 397.76489258 C-388.26715888 435.52552561 -379.4456219 469.84342304 -356.69873047 500.31567383 C-356.13927734 501.0865332 -355.57982422 501.85739258 -355.00341797 502.65161133 C-341.98571753 520.07143268 -326.30712623 532.965374 -306.69873047 542.31567383 C-305.85310547 542.72301758 -305.00748047 543.13036133 -304.13623047 543.55004883 C-277.51986195 555.23967014 -246.14556869 553.50603105 -217.69873047 554.31567383 C-217.70396729 555.49073486 -217.7092041 556.6657959 -217.71459961 557.87646484 C-217.73277165 562.25796744 -217.74420693 566.63946673 -217.75366211 571.02099609 C-217.7586745 572.91325441 -217.76548614 574.80550888 -217.77416992 576.69775391 C-217.78637145 579.42587231 -217.79198985 582.15393926 -217.79638672 584.88208008 C-217.801548 585.72090225 -217.80670929 586.55972443 -217.81202698 587.42396545 C-217.81236061 590.95897459 -217.70478362 594.27423614 -217.19262695 597.78027344 C-216.55964948 602.31124074 -216.61603967 606.74930421 -216.69873047 611.31567383 C-222.59878364 611.36598916 -228.49870565 611.40181477 -234.39892578 611.42553711 C-236.3963438 611.43545065 -238.39374791 611.44898547 -240.39111328 611.46655273 C-265.24811393 611.67932666 -289.80475582 609.49458101 -313.69873047 602.31567383 C-314.3996582 602.11103516 -315.10058594 601.90639648 -315.82275391 601.69555664 C-340.93717604 594.27765447 -361.64659543 580.0813303 -380.69873047 562.31567383 C-381.43865234 561.62989258 -382.17857422 560.94411133 -382.94091797 560.23754883 C-389.04316349 554.37418124 -394.19573049 547.90319333 -399.29150391 541.17163086 C-400.66868006 539.35530659 -402.06218686 537.55241679 -403.45654297 535.74926758 C-417.20852893 517.73127957 -427.52278668 497.78975279 -434.69873047 476.31567383 C-435.18599609 474.88481445 -435.18599609 474.88481445 -435.68310547 473.42504883 C-436.90698086 469.67810724 -438.04493378 465.91561528 -439.13623047 462.12817383 C-439.44270508 461.11980469 -439.44270508 461.11980469 -439.75537109 460.09106445 C-444.25487764 444.34980011 -445.21176979 428.44551286 -445.14477539 412.15576172 C-445.13626615 409.01633957 -445.16516188 405.87874621 -445.19677734 402.73950195 C-445.26069607 383.9825184 -442.42437291 366.17625995 -436.69873047 348.31567383 C-436.35326172 347.15551758 -436.00779297 345.99536133 -435.65185547 344.80004883 C-430.51031884 328.2485268 -422.80318054 313.35444665 -412.69873047 299.31567383 C-412.14314453 298.5396582 -411.58755859 297.76364258 -411.01513672 296.96411133 C-409.60994962 295.05244758 -408.16309966 293.18225642 -406.69873047 291.31567383 C-405.86535156 290.20579102 -405.86535156 290.20579102 -405.01513672 289.07348633 C-393.45175281 274.02425903 -379.07098653 262.28895095 -363.69873047 251.31567383 C-363.08513672 250.85418945 -362.47154297 250.39270508 -361.83935547 249.91723633 C-344.76931592 237.15534962 -322.64776849 228.55514253 -302.38232422 222.44067383 C-299.58061108 221.58500746 -296.83029576 220.67626142 -294.07373047 219.69067383 C-288.10431475 217.65432344 -281.87203557 216.5538474 -275.69873047 215.31567383 C-275.49119141 214.40430664 -275.28365234 213.49293945 -275.06982422 212.55395508 C-271.2308081 196.21347251 -266.11481193 180.39386788 -258.69873047 165.31567383 C-258.02057991 163.8460082 -257.3463858 162.37451311 -256.67529297 160.90161133 C-245.89750094 137.37439188 -232.01710072 115.59509483 -214.69873047 96.31567383 C-214.23337891 95.79537598 -213.76802734 95.27507812 -213.28857422 94.73901367 C-205.83451517 86.42428499 -198.21790091 78.34288116 -189.72607422 71.07348633 C-188.40399204 69.9271723 -187.10296336 68.75597613 -185.82763672 67.55786133 C-167.9402893 50.89089824 -145.81586871 37.54794528 -123.69873047 27.31567383 C-123.09915527 27.03062988 -122.49958008 26.74558594 -121.88183594 26.4519043 C-96.67575024 14.50431477 -69.07273213 6.2221861 -41.3984375 2.6640625 C-39.33936214 2.39834532 -37.28352278 2.10742617 -35.22949219 1.80517578 C-23.49460773 0.1628141 -11.83646444 -0.02366942 0 0 Z " fill="#FEFEFE" transform="translate(477.69873046875,159.684326171875)"/>
<path d="M0 0 C7.3973076 -0.04629419 14.79458407 -0.08185426 22.19200706 -0.10362434 C25.62675459 -0.1140717 29.06140317 -0.12824805 32.49609375 -0.15087891 C36.44269638 -0.17672063 40.38925863 -0.18646493 44.3359375 -0.1953125 C45.57242035 -0.20563507 46.8089032 -0.21595764 48.08285522 -0.22659302 C49.22388702 -0.22674408 50.36491882 -0.22689514 51.54052734 -0.22705078 C52.548685 -0.231492 53.55684265 -0.23593323 54.59555054 -0.24050903 C57 0 57 0 59 2 C59.65063522 4.1263942 60.21997522 6.27788147 60.75 8.4375 C62.28323399 14.4861192 64.0294011 20.43424593 65.9375 26.375 C70.02491344 39.14640351 73.77373016 52.00058531 77.30102539 64.93774414 C78.41637835 69.0062951 79.65606717 72.99969993 81 77 C81.77918209 79.64375116 82.54969028 82.28906595 83.3125 84.9375 C84.89841535 90.40205742 86.58392832 95.80616286 88.4375 101.1875 C90.86661308 108.33777329 92.82190782 115.58196686 94.76708984 122.87670898 C96.53584945 129.45247324 98.57047467 135.85977237 100.78125 142.30078125 C104.85428936 154.66350007 107.91772392 167.36094614 111 180 C111.57565596 177.98520416 112.15128409 175.97040036 112.72680664 173.95556641 C113.25160654 172.11918103 113.7768494 170.28292219 114.30249023 168.44677734 C115.87996685 162.93353961 117.44781021 157.41775072 119.00390625 151.8984375 C122.080673 141.01299341 125.17080351 130.18099516 128.85546875 119.484375 C130.69090973 113.89661612 132.20057896 108.22310443 133.75 102.55078125 C136.42590955 92.7607153 139.27141715 83.03900775 142.5625 73.4375 C144.77144329 66.94223728 146.46035589 60.42988055 148.0078125 53.75390625 C148.89609299 50.39312848 149.99287409 47.29086803 151.24609375 44.06030273 C152.54084205 40.52196696 153.47114949 36.88897517 154.4375 33.25 C156.12862851 27.01148702 157.98119862 20.87813477 160.08984375 14.765625 C161.35742917 10.91390622 162.38106068 7.00915409 163.38671875 3.08203125 C164 1 164 1 165 0 C166.7492872 -0.09365006 168.50236254 -0.11744438 170.25415039 -0.11352539 C171.37523697 -0.11344986 172.49632355 -0.11337433 173.65138245 -0.11329651 C175.48103798 -0.10555458 175.48103798 -0.10555458 177.34765625 -0.09765625 C179.2100016 -0.09553383 179.2100016 -0.09553383 181.10997009 -0.09336853 C184.41605491 -0.08870591 187.72207146 -0.07971497 191.02813721 -0.06866455 C194.3996115 -0.05844827 197.77109283 -0.05387045 201.14257812 -0.04882812 C207.76173775 -0.03777395 214.38086493 -0.02101736 221 0 C219.88298899 5.8103449 218.06131302 11.329543 216.24414062 16.95556641 C215.62956635 18.86084358 215.02178767 20.76830838 214.4140625 22.67578125 C212.51126654 28.59072265 210.4738465 34.29824683 208 40 C206.59949664 43.97784054 205.30657967 47.99049598 204 52 C202.30722374 57.13802925 200.60352657 62.27246178 198.90087891 67.40722656 C198.3861174 68.96155362 197.87243467 70.51623839 197.35986328 72.07128906 C194.46607064 80.84721116 191.46337911 89.5554215 188.17556763 98.19186401 C185.58670542 105.02097372 183.28115835 111.93757882 181 118.875 C180.56593971 120.18598742 180.13152757 121.4968584 179.69677734 122.80761719 C177.84394453 128.39756362 176.00263163 133.99128591 174.1640625 139.5859375 C173.89851562 140.39047363 173.63296875 141.19500977 173.359375 142.02392578 C172.89545838 143.43017304 172.4341695 144.83729236 171.9765625 146.24560547 C170.85248121 149.65385506 169.61357356 152.9785623 168.24609375 156.296875 C165.30145476 163.56974511 162.83563345 171.01480301 160.30883789 178.44042969 C159.43909621 180.99531112 158.56457853 183.54852082 157.68945312 186.1015625 C155.20431142 193.37251893 152.76972341 200.63213552 150.62866211 208.01318359 C149.65026375 211.10530236 148.29440487 214.02890488 147 217 C145.90049048 220.1063546 144.88644362 223.23901652 143.875 226.375 C143.35431008 227.98786877 142.83101347 229.59989913 142.3046875 231.2109375 C142.07765137 231.91524902 141.85061523 232.61956055 141.61669922 233.34521484 C141 235 141 235 140 236 C138.1281906 236.09386381 136.2528194 236.11743804 134.37866211 236.11352539 C133.17749252 236.11344986 131.97632294 236.11337433 130.73875427 236.11329651 C129.4314888 236.10813522 128.12422333 236.10297394 126.77734375 236.09765625 C125.43355868 236.09579198 124.08977293 236.09436812 122.74598694 236.09336853 C119.20317723 236.08954402 115.6604083 236.07971432 112.11761475 236.06866455 C108.50484773 236.05844899 104.89207416 236.0538706 101.27929688 236.04882812 C94.1861812 236.03809198 87.09309326 236.02101636 80 236 C79.73409058 235.33323242 79.46818115 234.66646484 79.19421387 233.97949219 C78.84072876 233.09422852 78.48724365 232.20896484 78.12304688 231.296875 C77.77463745 230.42385742 77.42622803 229.55083984 77.06726074 228.65136719 C76.07135677 226.1772697 75.05456928 223.71285308 74.03125 221.25 C71.03711586 213.76466464 68.76229816 206.03246103 66.35546875 198.34375 C65.98035156 197.1578125 65.60523438 195.971875 65.21875 194.75 C64.88810547 193.69296875 64.55746094 192.6359375 64.21679688 191.546875 C63.24518265 188.71468971 62.19667129 185.97322923 61.06835938 183.20288086 C59.04429786 178.20231019 57.3290136 173.14087145 55.6875 168.00390625 C55.39190186 167.0897142 55.09630371 166.17552216 54.79174805 165.23362732 C53.85789451 162.34429445 52.92857743 159.4535324 52 156.5625 C47.17343468 141.40026529 47.17343468 141.40026529 41.890625 126.39379883 C40.18525322 121.81014469 38.60042699 117.18361758 37 112.5625 C36.62045166 111.46703857 36.24090332 110.37157715 35.84985352 109.24291992 C32.20466106 98.67470448 28.67770059 88.06809535 25.15606689 77.45822144 C21.83109021 67.44354388 18.4537737 57.45206761 14.95043945 47.49804688 C13.03646782 42.03955374 11.17903241 36.56471312 9.359375 31.07421875 C9.13246979 30.38996826 8.90556458 29.70571777 8.67178345 29.00073242 C7.55094474 25.61745173 6.43456676 22.23276894 5.32373047 18.84619141 C4.92041504 17.62464355 4.51709961 16.4030957 4.1015625 15.14453125 C3.74400879 14.05503174 3.38645508 12.96553223 3.01806641 11.84301758 C2.10861637 9.07135791 2.10861637 9.07135791 0.86865234 6.9284668 C-0.21517995 4.52228599 -0.05961938 2.61301462 0 0 Z " fill="#FDFEFE" transform="translate(483,536)"/>
<path d="M0 0 C7.52969652 -0.02526648 15.0593822 -0.04283141 22.58911133 -0.05493164 C25.15291757 -0.0599737 27.71672091 -0.06680714 30.28051758 -0.07543945 C33.95655021 -0.08751064 37.63254498 -0.09322942 41.30859375 -0.09765625 C42.46274277 -0.10281754 43.61689178 -0.10797882 44.80601501 -0.11329651 C46.3975515 -0.11340981 46.3975515 -0.11340981 48.02124023 -0.11352539 C48.96055893 -0.115746 49.89987762 -0.11796661 50.86766052 -0.12025452 C53 0 53 0 54 1 C54.10091041 2.86591307 54.13077098 4.73568691 54.13371277 6.60432434 C54.14011024 8.43097374 54.14011024 8.43097374 54.14663696 10.29452515 C54.14628736 11.65704349 54.14582578 13.01956181 54.14526367 14.38208008 C54.14825407 15.80788766 54.15165631 17.23369443 54.15544128 18.65950012 C54.16431193 22.54909379 54.16662108 26.43866548 54.16725707 30.32826829 C54.16796749 32.76519579 54.17010196 35.2021177 54.17275429 37.63904381 C54.18202779 46.16244231 54.18608792 54.68582514 54.18530273 63.20922852 C54.18470597 71.11311837 54.19517296 79.01693907 54.2110464 86.92081147 C54.22422199 93.72788522 54.22948226 100.53493671 54.22884732 107.34202307 C54.22859464 111.39702919 54.23131485 115.45197429 54.24202538 119.50696754 C54.40710776 186.79898116 54.40710776 186.79898116 34 212 C33.360625 212.79019531 32.72125 213.58039063 32.0625 214.39453125 C18.74902029 230.07427395 -0.55785029 237.80447918 -20.7277832 239.54833984 C-36.584529 240.66340991 -51.02825195 239.56039827 -66 234 C-67 233 -67 233 -67.12025452 230.98155212 C-67.11803391 230.09552811 -67.11581329 229.20950409 -67.11352539 228.29663086 C-67.11344986 227.29566879 -67.11337433 226.29470673 -67.11329651 225.26341248 C-67.10813522 224.1748848 -67.10297394 223.08635712 -67.09765625 221.96484375 C-67.0962413 220.85645645 -67.09482635 219.74806915 -67.09336853 218.60609436 C-67.08775033 215.04986931 -67.07519475 211.49370617 -67.0625 207.9375 C-67.05748734 205.53320403 -67.05292403 203.12890708 -67.04882812 200.72460938 C-67.03777499 194.81638496 -67.02101917 188.9081969 -67 183 C-63.60843992 184.33309061 -60.40766367 185.79367741 -57.1875 187.5 C-47.2552992 192.43697371 -36.66147669 193.77365928 -25.7265625 191.2421875 C-20.69193753 189.52798543 -17.72920253 187.80107153 -14 184 C-13.34 184 -12.68 184 -12 184 C-11.70867187 183.41089844 -11.41734375 182.82179688 -11.1171875 182.21484375 C-10.15709749 180.31144852 -9.14582988 178.43402146 -8.125 176.5625 C-1.06511845 162.31052939 -0.86107331 147.7280586 -0.79467773 132.14355469 C-0.78507329 130.69352455 -0.77506182 129.24349706 -0.76467896 127.79347229 C-0.73790139 123.89556401 -0.71674683 119.99764397 -0.69667697 116.09969616 C-0.67464769 112.01177575 -0.64734275 107.92389048 -0.62062073 103.83599854 C-0.5709209 96.11219503 -0.52589888 88.38837178 -0.48259836 80.66453004 C-0.43303053 71.8639123 -0.37818557 63.06332985 -0.32291877 54.26274633 C-0.20944785 36.17519707 -0.10253433 18.0876144 0 0 Z " fill="#FDFEFE" transform="translate(404,536)"/>
</svg>
